<?xml version="1.0" encoding="utf-8"?> <!-- Generator: IcoMoon.io --> <!DOCTYPE svg PUBLIC "-//W3C//DTD SVG 1.1//EN" "http://www.w3.org/Graphics/SVG/1.1/DTD/svg11.dtd"> <svg width="32" height="32" viewBox="0 0 32 32" xmlns="http://www.w3.org/2000/svg" xmlns:xlink="http://www.w3.org/1999/xlink" fill="#474747"><g><path d="M 29.844,24C 31.215,21.645, 32,18.922, 32,16c0-8.836-7.164-16-16-16S0,7.164,0,16s 7.164,16, 16,16 c 4.418,0, 8.418-1.789, 11.312-4.688L 24.48,24.48C 22.309,26.656, 19.309,28, 16,28C 9.383,28, 4,22.617, 4,16S 9.383,4, 16,4s 12,5.383, 12,12 c0,1.422-0.273,2.781-0.73,4.047L 27.238,20L 24,20 L 24,8.043 l-8,0 c-4.418,0-8,3.582-8,8s 3.582,8, 8,8c 1.836,0, 3.508-0.645, 4.859-1.684 C 21.586,23.328, 22.695,24, 24,24L 29.844,24 z M 20,14.008l0,2.035 c0,2.207-1.797,4-4,4s-4-1.793-4-4s 1.797-4, 4-4l 4,0 L 20,14.008 z"></path></g></svg>