<?xml version="1.0" encoding="utf-8"?> <!-- Generator: IcoMoon.io --> <!DOCTYPE svg PUBLIC "-//W3C//DTD SVG 1.1//EN" "http://www.w3.org/Graphics/SVG/1.1/DTD/svg11.dtd"> <svg width="48" height="48" viewBox="0 0 48 48" xmlns="http://www.w3.org/2000/svg" xmlns:xlink="http://www.w3.org/1999/xlink" fill="#333333"><g><path d="M 3.826,12.686c 1.171,0.631, 17.398,9.346, 18.002,9.67C 22.43,22.68, 23.213,22.836, 24,22.836c 0.79,0, 1.572-0.156, 2.174-0.482 c 0.605-0.324, 16.829-9.038, 18-9.67C 45.348,12.055, 46.457,10.080, 44.304,10.080L 3.698,10.080 C 1.546,10.080, 2.652,12.055, 3.826,12.686z M 44.671,17.486 c-1.332,0.696-17.681,9.242-18.497,9.67S 24.79,27.638, 24,27.638c-0.787,0-1.356-0.055-2.172-0.482S 4.661,18.18, 3.331,17.486 C 2.393,16.997, 2.4,17.57, 2.4,18.012c0,0.442,0,17.604,0,17.604C 2.4,36.624, 3.742,37.92, 4.781,37.92l 38.441,0 c 1.042,0, 2.378-1.296, 2.378-2.302 c0,0,0-17.162,0-17.604C 45.6,17.57, 45.61,16.997, 44.671,17.486z"></path></g></svg>