<svg xmlns="http://www.w3.org/2000/svg" viewBox="0 0 1043.8 141.7">
  <defs>
    <!-- <style>
      #layer-1 {fill: #093569;}
    </style> -->
  </defs>
    <!-- <symbol id="ssc-logo"> -->
      <title>Sutherland Shire</title>
      <g id="ssc-straight-logo">
        <path fill="#093569" d="M35,35.2v-13a4.4,4.4,0,0,0-4.4-4.4H22.8a4.4,4.4,0,0,0-4.4,4.4V37.3A13.6,13.6,0,0,0,22,47l23,25.7s8.3,8.7,8.3,20.7v31.3a17.2,17.2,0,0,1-17,17H17a17.2,17.2,0,0,1-17-17V94.6a3.5,3.5,0,0,1,3.5-3.5H14.9a3.4,3.4,0,0,1,3.5,3.3v25.1a4.4,4.4,0,0,0,4.4,4.4h7.7a4.4,4.4,0,0,0,4.4-4.4V95.3a14.9,14.9,0,0,0-3.7-9.7L6.4,57.4S0,51.4,0,36.7V17A17.2,17.2,0,0,1,17,0H36.4a17.2,17.2,0,0,1,17,17V35.2a3.5,3.5,0,0,1-3.5,3.5H38.5A3.5,3.5,0,0,1,35,35.2Z"/>
        <path fill="#093569" d="M127.2,3.3V124.7a17.2,17.2,0,0,1-17,17H91.7a17.2,17.2,0,0,1-17-17V3.3A3.3,3.3,0,0,1,78.1,0H89.5A3.3,3.3,0,0,1,93,3.3V119.5a4.4,4.4,0,0,0,4.4,4.4h7a4.4,4.4,0,0,0,4.4-4.4V3.3A3.3,3.3,0,0,1,112.3,0h11.4A3.3,3.3,0,0,1,127.2,3.3Z"/>
        <path fill="#093569" d="M165.5,141.7a3.5,3.5,0,0,1-3.5-3.5V17.8H148.9a3.4,3.4,0,0,1-3.3-3.5V3.3A3.4,3.4,0,0,1,149.1,0h44.3a3.4,3.4,0,0,1,3.5,3.3v11a3.5,3.5,0,0,1-3.5,3.5h-13V138.3a3.5,3.5,0,0,1-3.5,3.5Z"/>
        <path fill="#093569" d="M268,3.5V138.3a3.3,3.3,0,0,1-3.3,3.5H253.1a3.5,3.5,0,0,1-3.5-3.5V79.9H234.6v58.4a3.3,3.3,0,0,1-3.3,3.5H219.7a3.5,3.5,0,0,1-3.5-3.5V3.5A3.5,3.5,0,0,1,219.7,0h11.6a3.3,3.3,0,0,1,3.3,3.5V62.1h15.1V3.5A3.5,3.5,0,0,1,253.1,0h11.6A3.3,3.3,0,0,1,268,3.5Z"/>
        <path fill="#093569" d="M309.4,79.9v44.1h23.8a3.3,3.3,0,0,1,3.3,3.3v11a3.3,3.3,0,0,1-3.3,3.5H294.5a3.5,3.5,0,0,1-3.5-3.5V3.3A3.4,3.4,0,0,1,294.5,0h38.7a3.3,3.3,0,0,1,3.3,3.3v11a3.3,3.3,0,0,1-3.3,3.5H309.4V62.1h21.8a3.3,3.3,0,0,1,3.3,3.3v11a3.3,3.3,0,0,1-3.3,3.5Z"/>
        <path fill="#093569" d="M358.7,3.5A3.5,3.5,0,0,1,362.2,0h32.9a17.2,17.2,0,0,1,17,17V61.9c0,7.5-3.3,13.9-10.1,16.2l18.6,60.3a2.4,2.4,0,0,1-2.5,3.3H405.3a4.7,4.7,0,0,1-4.4-3.5L383.6,79.9h-6.6v58.4a3.5,3.5,0,0,1-3.5,3.5H362.2a3.5,3.5,0,0,1-3.5-3.5Zm35,18.8a4.4,4.4,0,0,0-4.4-4.4H377.1V62.1h12.2a4.4,4.4,0,0,0,4.4-4.4Z"/>
        <path fill="#093569" d="M438,3.5A3.5,3.5,0,0,1,441.5,0h11.4a3.5,3.5,0,0,1,3.5,3.5V123.9H479a3.5,3.5,0,0,1,3.5,3.5v10.8a3.5,3.5,0,0,1-3.5,3.5H441.5a3.5,3.5,0,0,1-3.5-3.5Z"/>
        <path fill="#093569" d="M557.1,138.1a3,3,0,0,1-2.9,3.7h-12a3.8,3.8,0,0,1-3.9-3.7l-3.1-27.7H520.5l-3.1,27.7a3.8,3.8,0,0,1-3.7,3.7H502c-1.7,0-3.1-1.5-2.9-3.7L516.5,3.3A3.4,3.4,0,0,1,519.8,0h16.8a3.5,3.5,0,0,1,3.3,3.3ZM533.3,93.4l-5.2-47h-.4l-5.2,47Z"/>
        <path fill="#093569" d="M580.1,141.7a3.5,3.5,0,0,1-3.5-3.5V3.5A3.5,3.5,0,0,1,580.1,0h10.2c2.1,0,3.1,1.4,3.5,3.5l18.4,76.2h.2l-.8-29.2V3.5A3.5,3.5,0,0,1,615.1,0h10.4A3.5,3.5,0,0,1,629,3.5V138.3a3.5,3.5,0,0,1-3.5,3.5H615.5c-2.1,0-3.3-1.4-3.7-3.5L593.5,62.1h-.2l.8,29.2v47a3.6,3.6,0,0,1-3.5,3.5Z"/>
        <path fill="#093569" d="M652.2,3.3A3.4,3.4,0,0,1,655.7,0h32.9a17.2,17.2,0,0,1,17,17V124.7a17.2,17.2,0,0,1-17,17H655.7a3.5,3.5,0,0,1-3.5-3.5Zm35,18.9a4.4,4.4,0,0,0-4.4-4.4H670.6V123.9h12.2a4.4,4.4,0,0,0,4.4-4.4Z"/>
        <path fill="#093569" d="M761.9,35.2v-13a4.4,4.4,0,0,0-4.4-4.4h-7.7a4.4,4.4,0,0,0-4.4,4.4V37.3a13.6,13.6,0,0,0,3.7,9.7l23,25.7s8.3,8.7,8.3,20.7v31.3a17.2,17.2,0,0,1-17,17H743.9a17.2,17.2,0,0,1-17-17V94.6a3.5,3.5,0,0,1,3.5-3.5h11.4a3.4,3.4,0,0,1,3.5,3.3v25.1a4.4,4.4,0,0,0,4.4,4.4h7.7a4.4,4.4,0,0,0,4.4-4.4V95.3a14.9,14.9,0,0,0-3.7-9.7L733.3,57.4s-6.4-6-6.4-20.7V17a17.2,17.2,0,0,1,17-17h19.3a17.2,17.2,0,0,1,17,17V35.2a3.5,3.5,0,0,1-3.5,3.5H765.4A3.5,3.5,0,0,1,761.9,35.2Z"/>
        <path fill="#093569" d="M854.1,3.5V138.3a3.3,3.3,0,0,1-3.3,3.5H839.2a3.5,3.5,0,0,1-3.5-3.5V79.9H820.7v58.4a3.3,3.3,0,0,1-3.3,3.5H805.8a3.5,3.5,0,0,1-3.5-3.5V3.5A3.5,3.5,0,0,1,805.8,0h11.6a3.3,3.3,0,0,1,3.3,3.5V62.1h15.1V3.5A3.5,3.5,0,0,1,839.2,0h11.6A3.3,3.3,0,0,1,854.1,3.5Z"/>
        <path fill="#093569" d="M877.3,3.5A3.5,3.5,0,0,1,880.8,0h11.6a3.3,3.3,0,0,1,3.3,3.5V138.3a3.4,3.4,0,0,1-3.3,3.5H880.8a3.5,3.5,0,0,1-3.5-3.5Z"/>
        <path fill="#093569" d="M918.9,3.5A3.5,3.5,0,0,1,922.4,0h32.9a17.2,17.2,0,0,1,17,17V61.9c0,7.5-3.3,13.9-10.1,16.2l18.6,60.3a2.4,2.4,0,0,1-2.5,3.3H965.5a4.7,4.7,0,0,1-4.4-3.5L943.8,79.9h-6.6v58.4a3.5,3.5,0,0,1-3.5,3.5H922.4a3.5,3.5,0,0,1-3.5-3.5Zm35,18.8a4.4,4.4,0,0,0-4.4-4.4H937.3V62.1h12.2a4.4,4.4,0,0,0,4.4-4.4Z"/>
        <path fill="#093569" d="M1016.7,79.9v44.1h23.8a3.3,3.3,0,0,1,3.3,3.3v11a3.3,3.3,0,0,1-3.3,3.5h-38.7a3.5,3.5,0,0,1-3.5-3.5V3.3a3.4,3.4,0,0,1,3.5-3.3h38.7a3.3,3.3,0,0,1,3.3,3.3v11a3.3,3.3,0,0,1-3.3,3.5h-23.8V62.1h21.8a3.3,3.3,0,0,1,3.3,3.3v11a3.3,3.3,0,0,1-3.3,3.5Z"/>
      </g>
    <!-- </symbol> -->


</svg>
